<svg width="401" height="417" viewBox="0 0 401 417" fill="none" xmlns="http://www.w3.org/2000/svg">
<g clip-path="url(#clip0_30_4)">
<path d="M401 0H0V417H401V0Z" fill="white"/>
<g clip-path="url(#clip1_30_4)">
<g clip-path="url(#clip2_30_4)">
<g clip-path="url(#clip3_30_4)">
<path d="M330.258 208.499L336.026 198.112C345.957 180.227 340.065 157.356 322.866 147.029L312.877 141.031V129.035C312.877 108.384 296.777 91.6406 276.918 91.6406H265.382L259.614 81.2535C249.683 63.3683 227.691 57.2402 210.491 67.568L200.5 73.5629L190.511 67.5643C173.312 57.2402 151.319 63.3683 141.388 81.2535L135.62 91.6406H124.084C104.226 91.6406 88.1249 108.383 88.1249 129.035V141.031L78.1363 147.029C60.9373 157.356 55.0444 180.226 64.9759 198.112L70.7407 208.499L64.9724 218.886C55.0444 236.771 60.9373 259.642 78.1363 269.969L88.1249 275.967V287.963C88.1249 308.614 104.225 325.357 124.084 325.357H135.62L141.388 335.744C151.319 353.629 173.311 359.757 190.511 349.429L200.5 343.435L210.488 349.433C227.687 359.761 249.68 353.633 259.611 335.747L265.379 325.36H276.914C296.773 325.36 312.873 308.618 312.873 287.966V275.97L322.862 269.972C340.061 259.645 345.954 236.775 336.022 218.889L330.258 208.499ZM321.291 149.861C328.883 154.418 334.31 161.776 336.579 170.579C338.847 179.382 337.685 188.581 333.302 196.471L328.444 205.224L312.877 177.184V144.807L321.291 149.861ZM280.461 291.65L229.767 322.086H171.231L120.538 291.65L91.2704 238.934V178.063L120.538 125.347L171.231 94.9117H229.767L280.461 125.347L309.728 178.063V238.934L280.461 291.65ZM309.725 245.479V274.077L285.909 288.377L309.725 245.479ZM277.312 297.316L263.561 322.083H236.061L277.312 297.316ZM224.316 325.357L200.5 339.656L176.683 325.357H224.316ZM164.938 322.083H137.437L123.686 297.316L164.938 322.083ZM115.09 288.377L91.274 274.077V245.479L115.09 288.377ZM88.1249 233.266L74.3749 208.499L88.1249 183.732V233.266ZM91.274 171.519V142.92L115.09 128.621L91.274 171.519ZM123.686 119.682L137.437 94.9154H164.938L123.686 119.682ZM176.683 91.6406L200.5 77.3421L224.316 91.6406H176.683ZM236.061 94.9154H263.561L277.312 119.682L236.061 94.9154ZM285.909 128.621L309.725 142.92V171.519L285.909 128.621ZM312.873 183.732L326.624 208.499L312.873 233.266V183.732ZM276.914 94.9154C285.679 94.9154 293.917 98.4629 300.117 104.909C306.313 111.352 309.728 119.924 309.729 129.038V139.145L282.763 122.956L267.196 94.9154H276.914ZM212.062 70.4003C219.654 65.843 228.496 64.6335 236.961 66.9933C245.426 69.3522 252.501 74.9996 256.883 82.8909L261.741 91.6443H230.606L203.641 75.4557L212.062 70.4003ZM144.111 82.8873C148.494 74.9923 155.569 69.3486 164.035 66.9897C172.5 64.6307 181.345 65.8394 188.933 70.3976L197.35 75.4484L170.386 91.637H139.251L144.111 82.8873ZM91.274 129.035C91.274 119.92 94.6853 111.353 100.884 104.906C107.08 98.4629 115.323 94.9117 124.088 94.9117H133.806L118.239 122.952L91.274 139.141V129.035ZM67.6995 196.475C63.3171 188.58 62.154 179.385 64.4232 170.582C66.6916 161.78 72.1223 154.422 79.7109 149.865L88.1284 144.813V177.191L72.5609 205.232L67.6995 196.475ZM79.7074 267.136C72.1153 262.579 66.6881 255.221 64.4197 246.419C62.1513 237.616 63.3136 228.418 67.6969 220.526L72.5539 211.773L88.1213 239.814V272.192L79.7074 267.136ZM124.084 322.083C115.319 322.083 107.081 318.535 100.881 312.088C94.6853 305.645 91.2704 297.073 91.2704 287.96V277.853L118.235 294.041L133.803 322.083H124.084ZM188.937 346.597C181.344 351.154 172.502 352.364 164.038 350.004C155.573 347.645 148.497 341.998 144.115 334.106L139.257 325.353H170.393L197.358 341.542L188.937 346.597ZM256.887 334.11C252.505 342.005 245.429 347.649 236.964 350.008C228.499 352.367 219.654 351.158 212.065 346.601L203.648 341.549L230.613 325.36H261.748L256.887 334.11ZM309.725 287.963C309.725 297.077 306.314 305.644 300.114 312.092C293.918 318.534 285.675 322.086 276.911 322.087H267.192L282.76 294.045L309.725 277.856V287.963ZM336.579 246.415C334.31 255.218 328.879 262.575 321.291 267.133L312.873 272.184V239.807L328.441 211.766L333.299 220.519C337.681 228.417 338.848 237.613 336.579 246.415Z" fill="#8ABE53"/>
<g clip-path="url(#clip4_30_4)">
<g clip-path="url(#clip5_30_4)">
<g clip-path="url(#clip6_30_4)">
<g clip-path="url(#clip7_30_4)">
<g clip-path="url(#clip8_30_4)">
<g clip-path="url(#clip9_30_4)">
<g clip-path="url(#clip10_30_4)">
<path d="M189.916 176.226L168.372 189.16V199.193L189.916 186.258L211.459 199.193V189.16L189.916 176.226Z" fill="#6B7280"/>
<path d="M211.086 240.859L189.542 227.925V217.893L211.086 230.827L232.629 217.893V227.925L211.086 240.859Z" fill="#6B7280"/>
<path d="M168.372 201.887L189.916 188.953L198.27 193.969L176.727 206.904V232.773L168.372 227.757V201.887Z" fill="#6B7280"/>
<path d="M222.059 182.733L200.515 169.799L192.16 174.815L213.703 187.749V213.618L222.059 208.602V182.733Z" fill="#6B7280"/>
<path d="M179.016 234.265L179.017 208.397L187.372 203.381V229.25L208.915 242.184L200.56 247.201L179.016 234.265Z" fill="#6B7280"/>
<path d="M232.629 215.198V189.329L224.274 184.312V210.181L202.731 223.116L211.086 228.133L232.629 215.198Z" fill="#6B7280"/>
</g>
</g>
<path d="M139.323 188.743L138.139 192.21L122.897 188.089L123.7 185.74L136.758 189.401L136.804 189.265L130.733 185.376L131.446 183.293L138.489 184.337L138.546 184.166L126.122 178.651L126.898 176.38L141.322 182.892L140.102 186.462L133.911 185.387L133.885 185.464L139.323 188.743ZM147.096 171.761L142.571 180.147L128.89 172.165L133.375 163.849L135.337 164.994L132.07 171.048L135.87 173.266L138.821 167.796L140.706 168.896L137.755 174.365L141.83 176.742L145.134 170.617L147.096 171.761ZM151.773 166.041L148.784 169.668L136.873 159.052L140.003 155.254C142.268 152.505 144.431 152.049 146.491 153.886C147.157 154.479 147.587 155.169 147.782 155.954C147.975 156.741 147.885 157.491 147.51 158.207C148.189 157.587 148.938 157.295 149.756 157.333C150.571 157.375 151.379 157.74 152.18 158.431C154.434 160.44 154.299 162.976 151.773 166.041ZM150.377 164.295C151.061 163.465 151.373 162.716 151.31 162.049C151.249 161.381 150.924 160.785 150.338 160.263C149.751 159.739 149.164 159.55 148.577 159.696C147.996 159.846 147.362 160.336 146.677 161.166L145.146 163.024L148.766 166.25L150.377 164.295ZM145.048 155.943C143.981 154.991 142.88 155.203 141.746 156.579L140.124 158.548L143.505 161.562L145.003 159.744C146.22 158.268 146.235 157 145.048 155.943ZM159.788 157.974L156.902 160.372L147.11 147.626L150.032 145.199C151.017 144.381 151.879 143.804 152.618 143.468C153.349 143.133 154.104 143.022 154.886 143.139C155.672 143.252 156.468 143.65 157.275 144.333C158.083 145.007 159.067 146.1 160.228 147.611C161.392 149.126 162.148 150.493 162.496 151.712C162.85 152.926 162.806 154.007 162.365 154.953C161.932 155.9 161.074 156.907 159.788 157.974ZM160.194 153.404C160.223 152.823 160.063 152.193 159.715 151.517C159.366 150.84 158.8 149.991 158.017 148.972C157.237 147.957 156.579 147.193 156.043 146.678C155.507 146.165 154.966 145.853 154.42 145.742C153.877 145.636 153.361 145.705 152.872 145.949C152.388 146.189 151.764 146.625 151.001 147.259L150.402 147.757L157.505 157.005L158.071 156.536C158.793 155.936 159.319 155.406 159.649 154.946C159.984 154.49 160.165 153.977 160.194 153.404ZM175.341 147.89L167.192 152.434L159.777 138.057L167.858 133.551L168.92 135.612L163.037 138.893L165.096 142.886L170.411 139.923L171.433 141.903L166.118 144.868L168.325 149.149L174.278 145.829L175.341 147.89ZM180.793 146.171L172.622 131.672L175.304 130.846L181.866 143.109L180.887 129.129L183.553 128.308L184.328 145.083L180.793 146.171ZM199.251 142.602L190.064 143.694L188.283 127.486L197.393 126.403L197.648 128.726L191.015 129.515L191.509 134.017L197.501 133.305L197.747 135.538L191.755 136.25L192.286 141.077L198.996 140.279L199.251 142.602ZM205.131 140.692L211.503 141.173L211.34 143.506L202.482 142.836L203.62 126.566L206.106 126.753L205.131 140.692ZM218.702 145.882C216.829 145.332 215.674 144.271 215.237 142.698C214.802 141.121 214.962 138.945 215.714 136.172C216.467 133.398 217.428 131.492 218.598 130.454C219.765 129.422 221.275 129.177 223.126 129.721C224.977 130.264 226.122 131.282 226.563 132.773C227.003 134.264 226.837 136.429 226.067 139.267C225.299 142.099 224.347 144.048 223.212 145.115C222.078 146.176 220.576 146.432 218.702 145.882ZM219.263 143.617C220.342 143.934 221.183 143.737 221.785 143.03C222.396 142.317 223.013 140.809 223.638 138.507C224.262 136.21 224.491 134.623 224.324 133.745C224.152 132.866 223.549 132.275 222.514 131.971C221.475 131.666 220.635 131.868 219.995 132.578C219.356 133.288 218.746 134.71 218.167 136.844C217.589 138.972 217.358 140.556 217.475 141.595C217.593 142.627 218.189 143.301 219.263 143.617ZM232.314 145.623L230.183 144.524L227.949 149.209L225.723 148.062L232.691 133.446L237.112 135.725C238.741 136.564 239.744 137.567 240.122 138.733C240.503 139.907 240.297 141.326 239.505 142.988C237.886 146.382 235.49 147.26 232.314 145.623ZM235.788 137.602L233.938 136.648L231.193 142.405L233.043 143.359C234.001 143.852 234.813 143.978 235.481 143.736C236.145 143.498 236.727 142.856 237.225 141.812C237.72 140.773 237.842 139.932 237.591 139.29C237.331 138.65 236.73 138.087 235.788 137.602ZM237.808 155.131L236.025 153.708L245.576 140.766L247.457 142.267L244.861 150.935L245.013 151.056L252.393 146.208L254.274 147.708L244.722 160.649L242.938 159.225L249.452 150.52L249.376 150.459L244.543 153.538L242.677 152.047L244.287 146.398L244.211 146.337L237.808 155.131ZM252.512 169.516L246.284 162.408L257.881 151.421L264.055 158.468L262.393 160.043L257.897 154.911L254.676 157.963L258.738 162.6L257.14 164.113L253.078 159.477L249.626 162.749L254.175 167.941L252.512 169.516ZM259.117 180.89L257.959 178.886L259.744 177.77L265.033 167.286L264.997 167.224L254.875 173.549L253.712 171.536L267.159 163.134L268.322 165.146L262.937 175.659L262.987 175.744L271.406 170.483L272.564 172.488L259.117 180.89ZM273.739 181.68L272.347 177.731L274.458 176.926L278.104 187.265L275.992 188.07L274.597 184.114L261.979 188.924L261.121 186.491L273.739 181.68ZM128.512 236.649L127.303 233.124L141.834 226.202L142.651 228.584L130.124 234.415L130.17 234.551L137.334 233.559L138.063 235.684L131.887 239.554L131.946 239.724L145.117 235.771L145.91 238.084L130.545 242.573L129.303 238.953L134.838 235.669L134.815 235.6L128.512 236.649ZM137.138 255.527L132.539 247.018L146.419 238.904L150.984 247.35L148.994 248.514L145.667 242.359L141.808 244.615L144.81 250.169L142.903 251.283L139.901 245.73L135.768 248.146L139.128 254.363L137.138 255.527ZM143.08 263.095L140.043 259.416L152.126 248.632L155.304 252.483C157.605 255.271 157.71 257.598 155.621 259.463C154.942 260.069 154.21 260.412 153.425 260.49C152.637 260.573 151.927 260.363 151.296 259.859C151.789 260.661 151.953 261.485 151.788 262.334C151.623 263.182 151.147 263.969 150.36 264.695C148.072 266.738 145.646 266.204 143.08 263.095ZM144.978 261.903C145.674 262.747 146.348 263.187 147.001 263.227C147.653 263.266 148.277 263.02 148.872 262.488C149.467 261.957 149.741 261.374 149.693 260.741C149.639 260.111 149.266 259.375 148.569 258.531L147.019 256.653L143.349 259.929L144.978 261.903ZM153.863 257.64C154.944 256.675 154.909 255.496 153.758 254.102L152.112 252.108L148.68 255.171L150.195 257.007C151.432 258.507 152.655 258.718 153.863 257.64ZM152.632 272.696L149.703 270.265L159.635 257.323L162.599 259.781C163.598 260.611 164.341 261.367 164.828 262.049C165.307 262.733 165.581 263.489 165.65 264.32C165.719 265.15 165.522 266.057 165.057 267.04C164.589 268.028 163.766 269.289 162.588 270.823C161.41 272.359 160.281 273.442 159.201 274.076C158.124 274.714 157.087 274.912 156.089 274.672C155.088 274.437 153.936 273.778 152.632 272.696ZM157.081 272.086C157.637 271.983 158.195 271.676 158.756 271.168C159.325 270.659 160.007 269.887 160.801 268.853C161.594 267.819 162.176 266.968 162.546 266.302C162.909 265.636 163.081 265.009 163.063 264.423C163.049 263.84 162.872 263.324 162.531 262.879C162.184 262.429 161.624 261.884 160.852 261.244L160.246 260.74L153.044 270.126L153.616 270.602C154.352 271.212 154.974 271.636 155.483 271.873C155.989 272.115 156.522 272.186 157.081 272.086ZM169.995 284.005L161.722 279.394L169.244 264.8L177.456 269.378L176.377 271.47L170.393 268.135L168.302 272.193L173.702 275.203L172.668 277.208L167.267 274.198L165.028 278.543L171.073 281.913L169.995 284.005ZM177.523 286.6L178.259 269.559L180.993 270.4L180.068 284.614L186.651 272.14L189.358 272.973L181.116 287.705L177.523 286.6ZM198.017 290.597L188.692 289.487L190.502 273.036L199.759 274.137L199.5 276.497L192.754 275.694L192.251 280.268L198.338 280.992L198.089 283.253L192.002 282.529L191.463 287.427L198.277 288.238L198.017 290.597ZM205.6 287.846L212.076 287.359L212.241 289.728L203.244 290.403L202.095 273.888L204.616 273.699L205.6 287.846ZM221.933 287.42C220.032 287.977 218.492 287.694 217.312 286.571C216.13 285.442 215.158 283.471 214.395 280.656C213.632 277.841 213.492 275.663 213.973 274.122C214.455 272.581 215.635 271.535 217.514 270.984C219.393 270.434 220.906 270.681 222.053 271.726C223.195 272.778 224.156 274.744 224.937 277.622C225.717 280.501 225.888 282.714 225.45 284.261C225.007 285.81 223.834 286.862 221.933 287.42ZM221.271 285.147C222.363 284.827 222.99 284.191 223.155 283.239C223.313 282.289 223.077 280.648 222.444 278.315C221.811 275.977 221.199 274.475 220.606 273.807C220.015 273.139 219.191 272.96 218.134 273.27C217.083 273.578 216.462 274.215 216.271 275.181C216.074 276.149 216.27 277.718 216.858 279.887C217.444 282.051 218.052 283.548 218.683 284.38C219.313 285.212 220.176 285.468 221.271 285.147ZM232.889 276.972L230.733 278.082L232.999 282.841L230.733 284.007L223.671 269.167L228.154 266.859C229.81 266.007 231.209 265.779 232.351 266.176C233.49 266.581 234.462 267.628 235.265 269.317C236.905 272.762 236.113 275.313 232.889 276.972ZM228.796 269.128L226.929 270.088L229.709 275.929L231.576 274.968C232.549 274.467 233.149 273.862 233.376 273.152C233.599 272.45 233.458 271.569 232.954 270.508C232.451 269.451 231.871 268.833 231.214 268.651C230.566 268.474 229.76 268.632 228.796 269.128ZM244.733 275.721L242.92 277.165L233.235 264.022L235.145 262.501L242.63 267.429L242.782 267.308L240.16 258.504L242.07 256.983L251.755 270.126L249.942 271.57L243.445 262.635L243.369 262.695L245 268.44L243.112 269.945L238.201 266.812L238.119 266.879L244.733 275.721ZM261.021 259.851L254.691 267.058L242.934 255.892L249.217 248.738L250.903 250.339L246.325 255.552L249.593 258.657L253.726 253.952L255.34 255.487L251.209 260.191L254.71 263.516L259.335 258.249L261.021 259.851ZM268.981 246.584L267.803 248.618L265.989 247.481L254.439 247.534L254.403 247.596L264.667 254.028L263.484 256.07L249.846 247.524L251.029 245.483L262.654 245.508L262.704 245.423L254.164 240.072L255.342 238.038L268.981 246.584ZM259.082 234.143L257.663 238.148L255.52 237.328L259.234 226.841L261.376 227.662L259.958 231.668L272.757 236.569L271.881 239.044L259.082 234.143ZM123.905 210.651C123.905 207.157 126.629 204.326 129.988 204.326C133.347 204.326 136.07 207.157 136.07 210.651C136.07 214.145 133.347 216.976 129.988 216.976C126.629 216.976 123.905 214.145 123.905 210.651ZM265.097 210.651C265.097 207.157 267.821 204.326 271.18 204.326C274.539 204.326 277.262 207.157 277.262 210.651C277.262 214.145 274.539 216.976 271.18 216.976C267.821 216.976 265.097 214.145 265.097 210.651Z" fill="#8ABE53"/>
</g>
</g>
</g>
</g>
</g>
</g>
</g>
</g>
</g>
<defs>
<clipPath id="clip0_30_4">
<rect width="401" height="417" rx="200.5" fill="white"/>
</clipPath>
<clipPath id="clip1_30_4">
<rect width="280.7" height="328.387" fill="white" transform="translate(60.1503 44.3063)"/>
</clipPath>
<clipPath id="clip2_30_4">
<rect width="280.7" height="328.387" fill="white" transform="translate(60.1504 44.3063)"/>
</clipPath>
<clipPath id="clip3_30_4">
<rect width="280.7" height="328.387" fill="white" transform="translate(60.1504 44.3063)"/>
</clipPath>
<clipPath id="clip4_30_4">
<rect width="168.42" height="164.194" fill="white" transform="translate(116.29 126.403)"/>
</clipPath>
<clipPath id="clip5_30_4">
<rect width="168.42" height="164.194" fill="white" transform="translate(116.29 126.403)"/>
</clipPath>
<clipPath id="clip6_30_4">
<rect width="168.42" height="164.194" fill="white" transform="translate(116.29 126.403)"/>
</clipPath>
<clipPath id="clip7_30_4">
<rect width="168.42" height="164.194" fill="white" transform="translate(116.29 126.403)"/>
</clipPath>
<clipPath id="clip8_30_4">
<rect width="168.42" height="164.194" fill="white" transform="translate(116.29 126.403)"/>
</clipPath>
<clipPath id="clip9_30_4">
<rect width="64.2565" height="77.4017" fill="white" transform="translate(168.372 169.799)"/>
</clipPath>
<clipPath id="clip10_30_4">
<rect width="64.2565" height="77.4017" fill="white" transform="translate(168.372 169.799)"/>
</clipPath>
</defs>
</svg>
